<svg width="500" height="520" viewBox="0 0 500 520" fill="none" xmlns="http://www.w3.org/2000/svg">
<path d="M433.689 98.8192C432.315 101.663 432.543 103.947 433.689 105.928C426.291 115.246 416.782 124.621 406.344 134.014L381.83 153.92C378.648 153.219 376.327 151.076 374.376 148.233L404.032 120.858C409.68 114.284 416.333 108.647 423.743 104.156C427.539 103.475 431.021 101.606 433.689 98.8192Z" fill="#6B839B"/>
<path d="M377.605 125.444C376.8 123.662 401.181 97.766 401.181 97.766C406.712 97.0077 413.011 89.7468 417.908 81.1778C414.413 90.4293 411.6 99.2447 411.59 103.245C407.669 105.709 381.375 131.975 369.052 145.976C351.397 130.478 333.163 117.482 308.072 103.377C326.362 86.0121 337.606 67.3576 340.854 44.428C348.072 40.9114 356.843 39.6886 362.99 36.9207C365.936 38.7691 368.162 32.8922 369.621 27.6124C369.621 32.0391 369.1 38.6649 369.1 40.4943C361.373 41.5368 353.996 44.3739 347.561 48.7789C345.155 78.1635 334.3 95.7185 317.8 103.633L366.107 132.838C369.526 133.217 369.895 132.193 369.782 130.942" fill="#6B839B"/>
<path d="M344.064 18.958C331.476 24.7022 325.708 36.1907 322.279 49.6508C321.245 61.3644 316.983 72.5609 309.965 81.9929C304.159 87.9741 300.692 93.9458 301.914 99.8891C299.508 101.453 297.264 101.785 295.284 99.8891C296.894 88.7134 301.99 75.3481 308.781 60.9117C312.134 47.0156 316.709 34.5414 324.884 26.3042C328.72 21.4984 335.322 19.2424 344.064 18.958Z" fill="#6B839B"/>
<path d="M303.1 0C307.287 4.60676 308.784 10.2657 307.363 17.0621C300.354 24.285 295.637 30.7781 297.891 35.072C301.136 43.3792 301.136 52.6044 297.891 60.9116C292.056 72.9024 288.419 85.699 288.419 93.1399H280.842C267.316 90.5427 250.029 91.32 231.588 93.1399C226.217 93.1399 217.598 96.1353 208.855 99.3012L204.356 94.7987C199.734 82.2392 192.99 72.5233 191.806 62.0964C183.395 60.921 178.82 54.2289 177.124 44.3235V23.4509C178.46 19.9437 181.197 17.1379 182.334 14.2089C180.763 11.9465 179.021 9.80757 177.124 7.81063C180.155 7.56418 183.082 9.04289 185.886 12.3131C184.579 24.9959 180.676 34.2379 184.228 40.7499C189.078 46.5605 196.779 47.7453 203.882 48.57C207.52 62.8737 214.065 78.1917 216.196 90.0403C220.042 87.8111 224.322 86.4371 228.746 86.0118C221.046 73.6892 217.295 59.8973 213.828 46.4373C208.77 37.1858 205.095 29.7923 206.961 23.6878C207.548 16.7019 211.829 13.6212 219.748 12.5501C212.672 18.4081 211.053 25.6215 216.433 34.5886C222.258 39.802 224.721 48.1719 226.852 57.338L233.719 86.0118C249.877 84.5908 266.135 84.7495 282.262 86.4857C280.368 79.7272 280.842 74.1631 282.736 69.4236C284.415 64.56 287.456 60.2823 291.497 57.101C289.764 46.9017 289.054 37.2806 291.024 29.1382C291.109 24.3988 293.96 20.901 300.022 18.9484C304.275 14.2468 304.663 7.61158 303.1 0Z" fill="#6B839B"/>
<path d="M278.927 14.8168C273.661 18.9875 274.011 25.4048 278.113 33.3007C278.018 45.0735 278.652 55.9269 281.314 64.221C278.345 63.7566 275.31 63.9606 272.429 64.8181C271.141 69.4913 271.482 75.5104 272.429 81.994C260.637 81.8423 246.221 80.8565 241.532 82.9419C241.532 73.4629 235.963 66.3537 234.428 56.4009C232.534 47.6992 232.837 39.5758 236.086 32.2296C238.567 25.5943 240.263 21.035 241.532 17.6605C242.612 10.0773 239.543 7.30002 235.489 5.6886C239.178 6.06628 242.597 7.79872 245.084 10.5513C246.514 15.0064 246.031 19.5089 243.663 24.0588C241.895 28.2846 241.202 32.8833 241.646 37.443C248.107 38.4751 254.674 38.6758 261.186 38.0402C259.47 44.4348 260.057 51.2299 262.844 57.235C259.699 56.3819 256.763 56.1923 254.196 57.235C254.609 53.8763 254.078 50.4689 252.662 47.3959C250.578 46.448 247.623 46.448 244.014 47.2821C243.502 57.9459 244.355 68.2306 248.873 77.9654C255.996 78.1645 264.028 78.5626 265.449 77.4915C266.122 75.205 266.079 72.7668 265.326 70.5055C262.815 69.624 259.046 70.1074 255.03 70.8562C255.929 68.6287 255.721 66.1168 254.906 63.3963C261.404 63.1309 267.656 63.5006 272.079 62.9224C271.245 53.8216 271.086 44.6714 271.605 35.5472C273.168 35.5472 272.316 21.0919 270.061 21.4521C267.807 21.8123 272.903 15.8595 273.973 15.4045C275.83 14.1059 277.468 14.0206 278.927 14.8168Z" fill="#6B839B"/>
<path d="M160.71 47.7656C177.816 60.8654 189.76 75.5862 197.328 91.7004C185.962 105.284 168.467 113.056 125.645 136.82C122.159 139.18 111.191 117.151 100.592 103.644C92.8913 98.9044 87.1513 96.2408 83.6373 95.928C82.0999 94.3951 81.0023 92.477 80.4591 90.3743C79.9159 88.2717 79.9471 86.0615 80.5494 83.9751C88.1838 88.2595 96.699 89.9657 105.603 90.5345C112.725 98.2977 117.622 110.004 121.402 123.711C131.29 125.967 130.248 112.156 138.934 112.914C147.62 113.673 175.515 100.98 182.685 87.4538C173.63 76.1455 166.507 62.6949 160.71 47.7656Z" fill="#6B839B"/>
<path d="M124.32 142.005C117.057 135.73 110.12 129.086 103.539 122.099C98.7552 117.066 90.6947 113.748 82.4068 110.554C78.277 109.549 67.3086 99.1791 66.5035 98.7336C65.6984 98.2881 74.081 125.929 90.1832 124.592C89.6433 122.545 99.2383 131.701 102.08 130.81C104.723 135.313 109.591 139.645 114.157 143.522C102.838 156.176 93.9056 171.674 86.4513 188.926C84.6093 186.58 82.1487 184.798 79.3473 183.779C80.0047 181.036 81.2814 178.481 83.0793 176.309C81.0658 175.435 79.3835 173.941 78.277 172.044C75.6628 175.029 73.3043 180.015 71.0026 185.371C76.9921 188.065 82.7026 191.342 88.052 195.153C100.347 173.153 111.713 153.56 124.32 142.005Z" fill="#6B839B"/>
<path d="M106.641 144.232C101.972 141.18 101.015 139.815 100.333 138.545C99.8877 140.877 98.77 142.659 96.2505 143.284C97.4236 143.813 98.4632 144.599 99.2927 145.583C100.122 146.567 100.72 147.725 101.043 148.972C102.71 147.815 103.62 146.1 106.641 144.232Z" fill="#6B839B"/>
<path d="M100.958 155.607C98.9211 157.901 97.9644 159.399 97.936 162.006C92.4802 157.589 85.6226 147.996 75.3834 141.209C73.9911 139.313 63.4489 139.901 56.5534 139.967C52.6888 136.176 51.5996 131.673 49.2789 126.81L42.0803 121.663C44.7183 121.534 47.3205 122.317 49.4494 123.881C51.8742 124.611 56.4492 129.199 59.3949 133.749C67.9196 132.754 73.8774 131.806 77.5146 133.474C83.6145 135.778 91.2204 144.441 100.958 155.607Z" fill="#6B839B"/>
<path d="M92.7003 166.27C90.3669 168.595 88.7101 171.511 87.9076 174.707C84.1946 170.128 75.812 164.223 67.5714 158.356C64.0858 157.332 57.7586 160.147 50.0769 162.005C47.6047 163.304 44.6305 163.076 41.3722 162.005C35.7838 160.763 33.018 150.441 26.1035 145.028C27.6119 144.958 29.1192 145.189 30.5373 145.708C31.9555 146.227 33.256 147.024 34.363 148.052C36.6217 151.465 39.4099 154.495 42.6225 157.028C44.7603 156.594 46.9721 156.692 49.0634 157.313C53.0818 154.477 57.4914 152.242 62.1535 150.678L69.6458 151.019C74.4575 153.057 83.2948 163.067 92.7003 166.27Z" fill="#6B839B"/>
<path d="M72.3343 169.673C67.1627 177.427 67.5984 179.825 67.5984 183.891L59.9072 180.697C61.0628 175.853 63.7623 170.583 67.3616 165.057C68.4319 165.853 69.5591 167.607 72.3343 169.673Z" fill="#6B839B"/>
<path d="M92.0479 202.669C90.7976 204.224 89.0074 207.314 89.3863 210.432C81.7046 206.925 54.776 199.446 34.1558 190.526C27.336 177.588 26.7203 176.46 17.9967 175.957C17.7599 174.327 22.5148 173.91 30.888 174.706C36.931 178.754 70.4141 192.612 92.0479 202.669Z" fill="#6B839B"/>
<path d="M82.8798 259.902C82.1315 244.167 82.7471 231.892 86.2517 219.911C86.2517 218.309 22.004 199.446 21.0757 201.294C21.663 205.181 19.2855 208.877 13.1478 207.408L9.47266 206.053C41.0614 217.807 41.3929 217.096 54.2273 221.807C63.5382 222.337 71.5608 225.541 79.5456 226.233C77.6513 235.769 78.3238 246.964 78.7879 259.722L82.8798 259.902Z" fill="#6B839B"/>
<path d="M63.4013 247.76C62.2836 244.016 63.1645 241.21 63.4013 238.158H69.7948C69.4539 243.637 69.6812 248.841 69.7948 253.618C65.9208 252.281 60.8344 252.594 55.2366 253.618C53.9389 255.324 53.6832 257.087 55.2366 258.955C63.6381 259.808 71.7555 260.49 76.0179 258.955C77.4803 250.065 77.4322 240.993 75.8758 232.12C69.5662 230.93 63.0901 230.93 56.7805 232.12C55.6628 238.167 55.8333 243.58 55.2366 247.22C56.4612 247.941 57.8373 248.365 59.2549 248.459C60.6726 248.552 62.0925 248.313 63.4013 247.76Z" fill="#6B839B"/>
<path d="M54.1602 285.07C52.3511 290.028 52.6637 295.63 54.1602 301.602C42.0836 303.374 32.8674 306.73 28.5862 303.204C20.7813 299.289 14.151 296.151 5.68313 298.057C4.06344 300.076 2.10276 302.521 0 305.166L2.6616 296.985C5.73049 295.222 5.14324 293.971 7.98481 290.767L22.0221 293.08C36.8835 297.08 46.8479 291.175 54.1602 285.07Z" fill="#6B839B"/>
<path d="M65.6224 277.259L70.15 287.212L59.3994 290.055L58.6038 277.259H65.6224Z" fill="#6B839B"/>
<path d="M80.4567 303.743C79.9168 307.07 80.1252 310.53 82.4174 312.805C69.0715 318.492 58.804 322.881 46.7179 325.421C38.0985 327.09 26.6943 330.455 20.7839 333.422L6.22559 331.289C13.2158 331.507 17.9707 329.014 23.275 322.227C41.7452 317.137 62.4602 310.909 80.4567 303.743Z" fill="#6B839B"/>
<path d="M33.3887 353.317C35.7632 349.913 37.4877 346.098 38.4751 342.066C55.4108 339.582 71.352 329.194 89.2538 317.762C89.6138 321.677 91.6408 324.89 91.7544 326.189C89.6611 328.814 74.3451 336.871 63.6987 344.312C65.2994 347.791 70.1585 351.896 69.7796 357.137C70.1775 358.275 68.1221 359.716 64.0113 361.403C58.6028 355.81 58.3281 350.313 54.9372 348.578C49.6574 347.886 44.301 348.046 39.0718 349.052L33.3887 353.317Z" fill="#6B839B"/>
<path d="M80.1532 340.891V349.423L73.9965 355.11L72.8125 348.001L80.1532 340.891Z" fill="#6B839B"/>
<path d="M87.4941 335.554C88.8903 341.999 91.5917 348.09 95.4315 353.45C91.5808 357.894 86.8147 361.451 81.4605 363.877C80.7027 367.498 80.0113 368.493 80.7501 369.204C73.8072 375.612 72.2254 375.384 70.1511 375.839C66.9496 376.588 62.081 375.394 56.4737 374.777C51.5388 374.465 47.8543 372.123 44.3118 369.564C50.036 369.983 55.7898 369.702 61.4464 368.73L69.147 367.668C86.0733 352.976 89.3316 356.123 87.854 353.801C86.9068 349.213 84.2263 344.483 81.4605 340.89C83.7527 340.113 85.7607 338.312 87.4941 335.554Z" fill="#6B839B"/>
<path d="M99.8038 358.664C103.52 365.756 107.985 372.429 113.121 378.57C111.934 379.83 110.866 381.198 109.929 382.655C104.964 376.019 99.6261 369.67 93.9407 363.64C96.5549 362.579 98.222 360.617 99.8038 358.664Z" fill="#6B839B"/>
<path d="M92.5218 365.943C95.4391 372.19 100.857 378.617 107.8 385.138C101.053 394.286 91.8871 401.367 81.3355 405.584C78.8538 407.224 73.2559 406.665 65.1764 404.333C61.6624 404.807 58.6692 406.816 56.1213 410.2C54.9468 408.2 54.9184 405.556 56.1213 402.2L61.094 399.537L76.4859 399.717C90.1917 393.878 98.006 387.204 99.9856 383.896C97.2766 379.792 91.5935 374.834 85.9577 370.626C87.7006 368.967 90.5043 367.915 92.5218 365.943Z" fill="#6B839B"/>
<path d="M84.7101 374.655C84.9753 377.726 87.0781 379.262 90.2227 381.584C85.7236 384.93 77.6251 391.348 76.4885 391.537C75.3519 391.727 59.9979 388.286 51.5016 387.452C43.6684 386.504 38.1652 387.954 35.873 392.608C34.547 389.31 38.0137 385.338 47.4193 380.523C47.4193 380.523 67.8028 380.873 69.8676 382.655C71.9325 384.437 81.9254 378.608 84.7101 374.655Z" fill="#6B839B"/>
<path d="M123.25 386.741C123.525 390.106 125.713 392.078 129.293 392.608C123.269 400.381 114.621 409.415 103.539 419.623C94.9672 426.06 86.7741 431.993 81.5172 433.842L72.8125 435.444C82.4359 429.614 87.3992 422.96 87.0203 415.358C94.4179 413.832 101.342 409.576 107.802 402.741C114.555 397.073 120.627 391.547 123.25 386.741Z" fill="#6B839B"/>
<path d="M164.977 421.565C166.947 423.964 169.059 425.31 171.37 425.3C169.065 435.196 165.359 444.711 160.364 453.557C152.502 462.979 144.319 462.609 136.031 459.424C147.747 456.135 153.137 450.002 155.571 442.542C159.398 430.096 162.192 425.774 164.977 421.565Z" fill="#6B839B"/>
<path d="M143.14 499.426C147.526 498.241 150.225 489.227 152.025 475.966C155.217 472.942 168.837 473.947 172.977 469.568C177.22 471.369 184.201 444.581 191.096 418.732C183.803 416.543 175.553 412.173 167.113 407.357L164.101 411.14C170.826 416.059 177.466 420.742 183.045 422.571C176.519 436.543 168.743 460.401 168.752 461.511C168.752 462.97 158.181 467.814 151.352 469.615C146.512 471.511 144.343 475.302 143.178 479.919C145.347 486.971 145.669 493.549 143.14 499.426Z" fill="#6B839B"/>
<path d="M198.91 429.148C203.575 432.725 209.158 434.905 215.012 435.433C212.888 450.084 207.813 464.151 200.094 476.78C195.793 483.472 189.864 487.377 183.518 490.524C181.159 500.439 178.157 508.667 173.335 512.089C176.348 505.131 177.588 496.923 177.835 487.918C182.987 484.808 189.125 477.102 195.831 466.827C202.698 450.381 207.501 441.84 209.565 443.841C206.582 440.248 200.501 441.272 194.174 442.656C194.799 436.352 195.253 429.717 198.91 429.148Z" fill="#6B839B"/>
<path d="M223.774 435.083C227.156 436.59 230.405 436.742 233.483 435.083C228.904 450.114 226.044 465.616 224.958 481.293C212.759 491.122 208.97 504.355 209.33 518.023C203.145 507.492 202.614 495.066 209.69 485.264C212.493 467.889 216.964 452.628 223.774 435.083Z" fill="#6B839B"/>
<path d="M241.536 439.112C244.491 441.008 246.812 441.056 248.403 439.112C249.417 441.89 250.601 444.117 248.403 457.833C239.538 465.644 245.95 484.649 245.903 485.322C235.541 500.289 234.849 507.948 244.956 509.967C237.681 509.967 230.947 508.375 232.528 499.427C231.638 495.958 234.281 491.739 239.396 486.744C235.673 478.914 233.39 471.483 237.738 465.89C239.867 457.108 241.139 448.14 241.536 439.112Z" fill="#6B839B"/>
<path d="M254.083 462.573C255.704 461.641 257.541 461.151 259.411 461.151C261.28 461.151 263.117 461.641 264.738 462.573L262.134 445.037H270.658L272.079 467.786L251.715 469.208L253.372 476.554H267.106C273.396 487.673 274.968 501.579 269.474 519.683C270.526 522.11 274.087 510.688 282.972 482.365C284.629 476.583 282.489 462.014 278.88 444.089H287.471L293.391 472.052C293.391 472.052 296.232 495.673 293.391 492.905C291.497 491.095 304.653 510.735 310.44 505.702C302.778 499.948 299.415 493.199 301.916 485.085C305.032 476.554 305.325 470.696 303.336 467.075L291.26 439.112H255.977C256.943 446.866 255.844 454.743 254.083 462.573Z" fill="#6B839B"/>
<path d="M325.493 492.444C315.197 487.307 314.307 478.709 325.493 465.666C327.018 456.273 319.649 438.452 311.522 419.93L305.839 422.537C309.628 428.225 312.204 433.4 311.996 437.466C308.141 435.41 305.451 435.078 303.945 437.466C302.875 433.902 301.454 429.106 299.919 423.959L289.263 425.618C291.631 434.253 295.108 441.865 301.34 446.945C310.225 459.192 313.938 469.505 311.522 477.515C310.225 484.965 312.062 493.525 325.493 492.444Z" fill="#6B839B"/>
<path d="M350.459 482.951C347.011 478.031 347.485 469.405 348.328 460.438C346.566 446.135 340.059 432.001 331.515 418.02L327.727 412.096L314.703 418.02L316.9 423.072L324.885 418.02C328.807 427.338 332.908 437.092 340.751 455.699C339.546 462.069 339.789 468.63 341.461 474.894C344.369 479.434 347.39 481.652 350.459 482.951Z" fill="#6B839B"/>
<path d="M419.698 430.336C418.06 427.909 418.183 425.862 421.119 424.412C402.081 405.53 379.376 383.652 374.944 376.543C361.17 389.587 346.094 401.181 329.952 411.141L333.741 417.065C348.896 406.307 366.068 394.961 373.996 386.259L405.017 421.558C410.619 423.089 415.696 426.125 419.698 430.336Z" fill="#6B839B"/>
<path d="M435.704 414.704C434.804 410.135 432.304 404.277 435.704 403.092C429.869 401.557 415.51 390.381 402.789 381.054C404.295 388.106 404.437 393.064 402.789 395.272C414.43 398.4 424.991 402.457 432.626 409.017L435.704 414.704Z" fill="#6B839B"/>
<path d="M391.665 360.674C397.923 367.979 405.784 373.737 414.634 377.499C414.88 379.65 413.999 381.65 409.661 383.186C403.68 376.895 396.723 371.61 389.06 367.536C384.978 365.432 387.061 363.1 391.665 360.674Z" fill="#6B839B"/>
<path d="M384.909 367.31L379.112 374.656C384.028 377.016 388.991 380.807 394.031 386.495C392.61 384.283 394.031 382.071 398.293 379.86C392.24 377.689 387.807 373.461 384.909 367.31Z" fill="#6B839B"/>
<path d="M461.28 395.972C457.643 388.872 454.28 381.223 447.072 381.28C437.42 379.82 430.335 377.981 430.733 375.004C425.05 364.853 415.199 357.184 402.081 351.421C403.767 345.639 407.442 339.62 412.737 333.411C422.928 335.591 430.25 339.307 433.811 345.023L441.389 354.265C444.231 351.563 448.9 350.113 455.123 349.762C448.54 349.032 444.079 346.416 440.915 342.653L428.602 330.804C418.96 329.079 412.841 326.615 408.948 323.695C406.39 334.795 401.711 344.075 394.503 351.184C405.633 360.189 415.966 369.393 424.103 379.147C427.257 383.507 432.561 386.209 441.626 386.019C449.459 385.848 455.644 390.18 461.28 395.972Z" fill="#6B839B"/>
<path d="M426.319 256.32C424.425 250.585 424.103 243.542 424.984 235.466C434.635 231.523 442.772 230.461 448.928 233.172L460.399 236.537C461.232 232.689 464.273 228.869 469.208 225.077C463.354 228.177 458.201 228.537 453.466 227.21L436.625 224.366C427.693 228.376 421.242 229.798 416.383 229.58C420.522 240.187 421.886 250.49 419.926 260.434" fill="#6B839B"/>
<path d="M476.201 373.945C474.724 368.665 471.02 364.38 466.019 360.674C461.283 358.693 456.746 358.778 452.522 361.745C447.862 366.779 443.419 366.911 439.261 360.674C436.476 355.385 433.104 351.072 428.368 349.062L416.529 344.797C414.151 345.745 413.848 347.385 416.529 350.01C423.787 354.737 430.259 360.575 435.709 367.309C438.816 372.551 443.808 373.584 451.101 369.442C458.319 363.745 466.597 364.608 476.201 373.945Z" fill="#6B839B"/>
<path d="M474.779 348.825L476.199 334.843C463.687 334.056 454.651 329.582 448.257 322.284C444.005 315.743 437.355 313.155 429.787 312.094L411.791 307.354C413.505 311.98 412.899 315.601 410.607 318.492C424.151 318.492 434.665 320.957 439.496 328.094C440.955 331.592 446.941 334.729 458.203 337.45C468.489 339.649 474.589 343.241 474.779 348.825Z" fill="#6B839B"/>
<path d="M500 216.115V204.03C487.905 199.072 471.888 201.594 454.298 207.11C455.596 212.068 457.074 221.026 458.561 232.23C459.821 230.567 461.426 229.198 463.265 228.216C465.105 227.235 467.135 226.663 469.217 226.542C466.252 223.699 465.428 219.357 465.191 214.694C482.43 208.343 495.482 207.073 500 216.115Z" fill="#6B839B"/>
<path d="M435.47 212.566C434.069 217.798 435.186 221.495 437.602 224.414H422.683C422.532 226.974 420.088 228.471 414.869 228.68C414.881 221.587 413.43 214.568 410.607 208.063C432.392 200.575 448.144 192.65 450.862 183.655C461.054 185.323 469.058 182.783 474.779 175.835C472.411 186.878 466.169 193.721 457.019 197.399C445.454 204.594 431.852 209.523 416.763 212.803C415.267 216.149 416.261 216.746 417.947 216.594C425.231 217.343 431.521 216.604 435.47 212.566Z" fill="#6B839B"/>
<path d="M458.675 126.364C458.059 134.819 454.81 139.436 448.492 139.578C437.429 137.047 430.723 139.35 428.128 146.213C422.644 155.55 415.975 167.484 410.605 165.171L409.421 160.668L401.607 166.356C400.745 168.981 403.33 169.569 407.526 169.2C407.526 169.2 412.007 177.01 412.262 179.863C407.072 184.754 406.646 188.053 415.104 188.394C428.308 185.285 437.562 178.603 442.686 168.252L447.081 170.147C445.12 176.858 442.421 182.413 438.784 186.499C431.907 193.968 421.166 196.158 410.605 198.584C402.544 195.627 401.379 187.664 401.607 178.678C402.27 174.688 397.126 169.977 391.188 165.171C408.047 158.185 422.009 137.53 434.995 132.232C444.751 136.516 448.473 134.27 458.675 126.364Z" fill="#6B839B"/>
<path d="M479.042 149.767C467.524 160.308 456.555 161.142 446.127 152.374C438.189 149.227 430.735 166.829 416.29 172.043L419.605 181.048C426.169 180.365 432.724 174.289 439.26 162.479C441.609 158.336 447.358 158.687 455.835 162.479C464.066 166.28 471.644 159 479.042 149.767Z" fill="#6B839B"/>
<path d="M402.318 142.309C402.251 145.674 403.208 148.622 408.474 149.769L404.032 150.954C397.942 153.285 388.82 166.357 387.636 163.513C386.452 160.67 384.908 160.433 384.908 160.433C386.717 154.868 394.115 148.631 402.318 142.309Z" fill="#6B839B"/>
<path d="M164.752 76.2391C158.437 76.2833 154.525 79.3861 153.016 85.5474L136.734 52.9873L164.752 76.2391Z" fill="#0087E0"/>
<path d="M149.171 88.572C142.857 88.6289 138.945 91.7316 137.436 97.8803L121.182 65.3202L149.171 88.572Z" fill="#0087E0"/>
<path d="M133.327 101.18C127.013 101.23 123.101 104.333 121.591 110.488L105.347 77.9279L133.327 101.18Z" fill="#0087E0"/>
<path d="M166.163 78.0683C166.163 82.1 168.136 84.5898 172.083 85.5377L151.377 95.8887L166.163 78.0683Z" fill="#0087E0"/>
<path d="M125.36 404.504C125.404 409.559 127.892 412.7 132.824 413.926L106.729 426.96L125.36 404.504Z" fill="#0087E0"/>
<path d="M135.248 416.997C135.292 422.052 137.78 425.193 142.712 426.419L116.616 439.462L135.248 416.997Z" fill="#0087E0"/>
<path d="M145.326 429.718C145.376 434.773 147.864 437.914 152.79 439.14L126.695 452.183L145.326 429.718Z" fill="#0087E0"/>
<path d="M126.866 403.358C128.273 403.452 129.666 403.019 130.772 402.143C131.879 401.267 132.62 400.011 132.852 398.618L141.073 415.235L126.866 403.358Z" fill="#0087E0"/>
<path d="M348.507 88.2012C348.368 84.9151 346.688 82.9372 343.468 82.2674L360.081 73.2624L348.507 88.2012Z" fill="#0087E0"/>
<path d="M353.176 107.993C352.98 103.191 350.527 100.296 345.816 99.3107L370.102 86.1539L353.176 107.993Z" fill="#0087E0"/>
<path d="M371.432 117.651C371.493 116.211 371.009 114.8 370.077 113.7C369.145 112.601 367.833 111.893 366.403 111.718L383.007 102.713L371.432 117.651Z" fill="#0087E0"/>
<path d="M361.569 68.134C369.822 68.2414 375.009 64.2982 377.131 56.3043L397.439 99.2249L361.569 68.134Z" fill="#0087E0"/>
<path d="M450.67 272.529C454.951 267.612 455.232 262.475 451.513 257.116L487.686 266.823L450.67 272.529Z" fill="#0087E0"/>
<path d="M469.094 313.988C468.154 312.956 466.86 312.314 465.47 312.189C464.079 312.065 462.692 312.467 461.583 313.315L466.954 295.808L469.094 313.988Z" fill="#0087E0"/>
<path d="M443.171 310.406C442.235 309.365 440.941 308.715 439.546 308.586C438.152 308.458 436.761 308.861 435.651 309.714L441.012 292.207L443.171 310.406Z" fill="#0087E0"/>
<path d="M434.698 288.302C440.483 282.766 441.398 276.517 437.445 269.553L480.599 285.449L434.698 288.302Z" fill="#0087E0"/>
<path d="M439.171 255.732C444.955 250.183 445.871 243.934 441.918 236.982L485.072 252.841L439.171 255.732Z" fill="#0087E0"/>
<path d="M382.838 415.215C382.049 422.261 384.976 427.025 391.619 429.509L353.248 443.244L382.838 415.215Z" fill="#0087E0"/>
<path d="M359.557 451.709C364.084 452.164 367.134 450.249 368.678 445.965L377.752 470.544L359.557 451.709Z" fill="#0087E0"/>
<path d="M375.489 449.368C378.861 449.709 381.125 448.287 382.281 445.102L389.025 463.378L375.489 449.368Z" fill="#0087E0"/>
<path d="M350.943 407.111C354.315 407.452 356.576 406.027 357.725 402.836L364.469 421.111L350.943 407.111Z" fill="#0087E0"/>
<path d="M383.844 437.586C388.384 438.041 391.428 436.126 392.975 431.842L402.04 456.411L383.844 437.586Z" fill="#0087E0"/>
<path d="M13.262 285.742L30.7849 262.348L13.262 228.926L44.5665 260.68L13.262 285.742Z" fill="#0087E0"/>
<path d="M49.9907 249.505V231.856L28.9062 240.681L49.9907 249.505Z" fill="#0087E0"/>
<path d="M49.9907 285.742V269.448L28.9062 277.6L49.9907 285.742Z" fill="#0087E0"/>
<path d="M125.58 166.165C150.138 134.424 186.068 113.484 225.773 107.771C265.479 102.057 305.848 112.019 338.348 135.549C370.848 159.08 392.932 194.336 399.93 233.863C406.929 273.391 398.295 314.094 375.852 347.367C353.409 380.64 318.918 403.876 279.668 412.163C240.418 420.45 199.486 413.138 165.525 391.774C131.564 370.41 107.235 336.667 97.6803 297.679C88.1261 258.691 94.0956 217.512 114.327 182.848" stroke="#0087E0" stroke-width="1.5" stroke-miterlimit="10"/>
<path d="M255.921 125.891C253.44 125.749 250.949 125.682 248.429 125.682C222.259 125.677 196.645 133.238 174.668 147.456C152.69 161.674 135.285 181.944 124.546 205.827" stroke="#0087E0" stroke-width="1.5" stroke-miterlimit="10"/>
<path d="M371.706 318.682C380.68 299.244 384.941 277.96 384.141 256.563C383.341 235.166 377.503 214.26 367.103 195.548C356.703 176.835 342.034 160.845 324.29 148.879C306.547 136.913 286.231 129.309 264.996 126.686" stroke="#0087E0" stroke-width="1.5" stroke-miterlimit="10"/>
<path d="M168.194 371.243C183.779 382.66 201.619 390.62 220.523 394.591C239.426 398.561 258.958 398.452 277.816 394.27C296.673 390.088 314.423 381.929 329.88 370.338C345.337 358.747 358.147 343.99 367.454 327.053" stroke="#0087E0" stroke-width="1.5" stroke-miterlimit="10"/>
<path d="M120.941 214.652C111.315 240.892 109.999 269.463 117.171 296.478C124.343 323.494 139.656 347.643 161.026 365.642" stroke="#0087E0" stroke-width="1.5" stroke-miterlimit="10"/>
<path d="M249.331 138.953C224.915 138.951 201.046 146.195 180.744 159.769C160.442 173.343 144.618 192.637 135.273 215.211C125.929 237.785 123.483 262.625 128.246 286.59C133.009 310.556 144.766 332.569 162.031 349.847C179.296 367.125 201.293 378.891 225.241 383.657C249.188 388.424 274.01 385.976 296.567 376.625C319.125 367.273 338.404 351.437 351.968 331.12C365.532 310.803 372.771 286.917 372.769 262.482C372.766 229.721 359.76 198.302 336.612 175.136C313.463 151.971 282.068 138.955 249.331 138.953Z" stroke="#0087E0" stroke-width="1.5" stroke-miterlimit="10"/>
<path d="M386.163 311.185C392.224 294.403 394.802 276.561 393.741 258.748" stroke="#0087E0" stroke-width="1.5" stroke-miterlimit="10"/>
<path d="M103.577 260.187C102.241 270.851 104.136 281.278 105.083 291.705C106.977 304.027 111.713 314.454 117.396 325.829" stroke="#0087E0" stroke-width="1.5" stroke-miterlimit="10"/>
<path d="M248.428 105.757V125.681" stroke="#0087E0" stroke-width="1.5" stroke-miterlimit="10"/>
<path d="M133.916 169.996C150.52 147.294 174.001 131.806 200.788 123.701C216.243 119.197 232.201 116.649 248.289 116.118" stroke="#0087E0" stroke-width="1.5" stroke-miterlimit="10"/>
<path d="M93.2424 259.004H103.737V255.686C104.893 240.387 108.558 225.354 113.503 210.86" stroke="#0087E0" stroke-width="1.5" stroke-miterlimit="10"/>
<path d="M391.534 243.202C392.482 248.434 393.211 253.714 393.741 259.003" stroke="#0087E0" stroke-width="1.5" stroke-miterlimit="10"/>
<path d="M370.294 184.196C379.049 199.566 385.523 216.128 389.513 233.363" stroke="#0087E0" stroke-width="1.5" stroke-miterlimit="10"/>
<path d="M330.079 141.189C343.947 150.511 355.89 162.419 365.258 176.261" stroke="#0087E0" stroke-width="1.5" stroke-miterlimit="10"/>
<path d="M103.741 259.004L103.135 263.639" stroke="#0087E0" stroke-width="1.5" stroke-miterlimit="10"/>
<path d="M153.511 371.215L146.426 378.134" stroke="#0087E0" stroke-width="1.5" stroke-miterlimit="10"/>
<path d="M330.721 383.537C290.219 410.191 247.691 417.282 206.431 400.931" stroke="#0087E0" stroke-width="1.5" stroke-miterlimit="10"/>
<path d="M207.618 391.889V402.732" stroke="#0087E0" stroke-width="1.5" stroke-miterlimit="10"/>
<path d="M321.988 374.759L331.64 382.702C358.531 360.019 380.013 337.308 386.16 311.155" stroke="#0087E0" stroke-width="1.5" stroke-miterlimit="10"/>
<path d="M339.9 148.46L333.033 155.323" stroke="#0087E0" stroke-width="1.5" stroke-miterlimit="10"/>
<path d="M144.271 174.384L132.383 170.375" stroke="#0087E0" stroke-width="1.5" stroke-miterlimit="10"/>
<path d="M152.103 372.467L130.318 348.22L139.079 343.66" stroke="#0087E0" stroke-width="1.5" stroke-miterlimit="10"/>
<path d="M135.316 211.741L125.191 203.296" stroke="#0087E0" stroke-width="1.5" stroke-miterlimit="10"/>
<path d="M169.996 371.518L182.281 367.063" stroke="#0087E0" stroke-width="1.5" stroke-miterlimit="10"/>
<path d="M350.406 194.071L362.246 187.436" stroke="#0087E0" stroke-width="1.5" stroke-miterlimit="10"/>
<path d="M362.481 312.208L373.26 317.326" stroke="#0087E0" stroke-width="1.5" stroke-miterlimit="10"/>
</svg>
